<svg xmlns="http://www.w3.org/2000/svg" viewBox="0 0 128 128" role="img" aria-label="BON">
  <defs>
    <linearGradient id="g" x1="16" y1="14" x2="112" y2="116" gradientUnits="userSpaceOnUse">
      <stop offset="0" stop-color="#2563eb"/>
      <stop offset="0.52" stop-color="#7c3aed"/>
      <stop offset="1" stop-color="#ec4899"/>
    </linearGradient>
    <filter id="s" x="-20%" y="-20%" width="140%" height="140%">
      <feDropShadow dx="0" dy="10" stdDeviation="8" flood-color="#4f46e5" flood-opacity=".28"/>
    </filter>
  </defs>
  <rect x="12" y="12" width="104" height="104" rx="32" fill="url(#g)" filter="url(#s)"/>
  <path fill="#fff" d="M39 34h34c15 0 24 8 24 20 0 8-4 14-11 17 8 3 13 10 13 20 0 13-10 22-27 22H39V34Zm22 18v14h10c6 0 10-3 10-7s-4-7-10-7H61Zm0 31v13h12c6 0 10-2 10-6 0-5-4-7-10-7H61Z"/>
</svg>
